<?xml version="1.0" encoding="UTF-8"?><svg id="Layer_1" xmlns="http://www.w3.org/2000/svg" viewBox="0 0 625 725"><defs><style>.cls-1{fill:#08784d;}.cls-1,.cls-2{fill-rule:evenodd;}.cls-1,.cls-2,.cls-3{stroke-width:0px;}.cls-2{fill:#f2b22f;}.cls-3{fill:#fff;}</style></defs><path class="cls-2" d="m131.19,529.7c20.32,20.16,40.64,40.31,60.96,60.47,7.22,7.16,19.02,7.16,26.23,0,20.32-20.15,40.64-40.31,60.96-60.47,7.21-7.16,7.21-18.88,0-26.04-20.32-20.14-40.65-40.31-60.96-60.47-7.21-7.16-19.01-7.16-26.23,0-20.32,20.16-40.65,40.33-60.96,60.47-7.22,7.16-7.22,18.88,0,26.04Z"/><path class="cls-2" d="m236.82,424.88c20.33,20.16,40.65,40.31,60.96,60.47,7.22,7.16,19.02,7.16,26.23,0,20.33-20.16,40.65-40.31,60.96-60.47,7.22-7.16,7.22-18.88,0-26.04-20.32-20.16-40.64-40.31-60.96-60.47-7.21-7.16-19.01-7.16-26.23,0-20.32,20.16-40.64,40.31-60.96,60.47-7.21,7.16-7.21,18.88,0,26.04Z"/><path class="cls-2" d="m236.82,634.49c20.32,20.16,40.64,40.31,60.96,60.47,7.21,7.16,19.02,7.16,26.23,0,20.32-20.16,40.64-40.31,60.96-60.47,7.21-7.16,7.21-18.86,0-26.02-20.33-20.16-40.64-40.31-60.96-60.47-7.22-7.16-19.02-7.16-26.23,0-20.33,20.16-40.65,40.31-60.96,60.47-7.22,7.16-7.22,18.86,0,26.02Z"/><path class="cls-2" d="m342.47,529.68c20.33,20.18,40.64,40.33,60.96,60.49,7.22,7.16,19.01,7.16,26.23,0,20.32-20.15,40.64-40.31,60.95-60.49,7.22-7.14,7.22-18.86,0-26.02-20.32-20.16-40.64-40.31-60.95-60.47-7.22-7.16-19.01-7.16-26.23,0-20.32,20.16-40.65,40.31-60.96,60.47-7.21,7.16-7.21,18.88,0,26.02Z"/><path class="cls-1" d="m31.27,290.94c2.9-63.22,27.31-125.65,73.27-175.52l86.05,85.37c-22.47,26.15-35.02,57.83-37.62,90.16H31.27Z"/><path class="cls-1" d="m472.03,290.98c-2.61-32.32-15.15-64.01-37.63-90.17l86.07-85.37c45.96,49.9,70.38,112.32,73.27,175.54h-121.71Z"/><path class="cls-1" d="m416.22,182.73c-26.36-22.28-58.3-34.72-90.87-37.3V24.67c63.72,2.87,126.66,27.11,176.94,72.7l-86.07,85.37Z"/><path class="cls-1" d="m434.4,406.59c22.48-26.17,35.01-57.85,37.63-90.15h121.7c-2.9,63.21-27.31,125.64-73.27,175.52l-86.06-85.37Z"/><path class="cls-1" d="m122.7,97.36c50.28-45.58,113.21-69.82,176.94-72.7v120.76c-32.58,2.58-64.52,15.02-90.88,37.3l-86.06-85.37Z"/><path class="cls-1" d="m104.53,491.97c-45.96-49.88-70.39-112.32-73.27-175.54h121.71c2.61,32.32,15.14,64,37.63,90.15l-86.06,85.38Z"/><path class="cls-3" d="m140.61,225.81v-.52c-.79-26.42-32.11-52.49-32.11-52.49,0,0-31.32,26.07-32.11,52.49v1.75c.35,17.5,14.61,31.5,32.11,31.5s31.85-14.09,32.11-31.5v-1.22Zm-10.67.96c-.09,5.69-2.36,10.94-6.39,14.87-4.03,3.94-9.36,6.12-15.05,6.12-1.05,0-2.1-.09-3.06-.26,11.64-6.82,19.42-19.6,19.42-34.12,0-1.66-.09-3.24-.26-4.81,3.41,6.21,5.16,11.99,5.34,17.06v1.14Z"/><path class="cls-3" d="m219.96,135.17v7.37h25.79v-7.37h-25.79Z"/><path class="cls-3" d="m547.55,243.11h-10.42c-7.91,0-14.33,6.86-14.33,15.3,0,.77.59,1.39,1.3,1.39h10.42c7.91,0,14.33-6.86,14.33-15.3,0-.77-.59-1.39-1.3-1.39h0Z"/><path class="cls-3" d="m496.89,243.11h-10.42c-.72,0-1.3.63-1.3,1.39,0,8.44,6.42,15.3,14.33,15.3h10.42c.72,0,1.3-.63,1.3-1.39,0-8.44-6.42-15.3-14.33-15.3h0Z"/><path class="cls-3" d="m547.55,221.47h-10.42c-7.91,0-14.33,6.86-14.33,15.3,0,.77.59,1.39,1.3,1.39h10.42c7.91,0,14.33-6.86,14.33-15.3,0-.77-.59-1.39-1.3-1.39h0Z"/><path class="cls-3" d="m496.89,221.47h-10.42c-.72,0-1.3.63-1.3,1.39,0,8.44,6.42,15.3,14.33,15.3h10.42c.72,0,1.3-.63,1.3-1.39,0-8.44-6.42-15.3-14.33-15.3h0Z"/><path class="cls-3" d="m547.55,199.83h-10.42c-7.91,0-14.33,6.86-14.33,15.3,0,.77.59,1.39,1.3,1.39h10.42c7.91,0,14.33-6.86,14.33-15.3,0-.77-.59-1.39-1.3-1.39h0Z"/><path class="cls-3" d="m496.89,199.83h-10.42c-.72,0-1.3.63-1.3,1.39,0,8.44,6.42,15.3,14.33,15.3h10.42c.72,0,1.3-.63,1.3-1.39,0-8.44-6.42-15.3-14.33-15.3h0Z"/><path class="cls-3" d="m524.11,194.88h10.42c7.91,0,14.33-6.86,14.33-15.3,0-.77-.59-1.39-1.3-1.39h-10.42c-7.91,0-14.33,6.86-14.33,15.3,0,.77.59,1.39,1.3,1.39h0Z"/><path class="cls-3" d="m496.89,178.19h-10.42c-.72,0-1.3.63-1.3,1.39,0,8.44,6.42,15.3,14.33,15.3h10.42c.72,0,1.3-.63,1.3-1.39,0-8.44-6.42-15.3-14.33-15.3h0Z"/><path class="cls-3" d="m517.01,192.72c-.8,0-1.45.7-1.45,1.55v80.38c0,.85.65,1.55,1.45,1.55s1.45-.7,1.45-1.55v-80.38c0-.85-.65-1.55-1.45-1.55h0Z"/><path class="cls-3" d="m465.78,379.47v-2.93c.22-.03.44-.08.66-.08.83-.01,1.65,0,2.48,0,2.43.01,4.94-.39,7.12,1.75.07-1.48.13-2.63.19-3.78,1.64.34,3.2.82,4.79.97,5.39.53,10.79,1.14,16.19,1.39,14.29.66,28.58.63,42.87-.05,5.38-.26,10.73-.97,16.09-1.49.55-.05,1.08-.22,1.74-.36.05,1.15.1,2.22.15,3.43.81-.42,1.54-.77,2.23-1.18.89-.52,1.81-.74,2.86-.71,1.91.06,3.83.02,5.82.02v2.96c-.21.02-.43.07-.66.07-1,0-2.02.12-3-.02-2.59-.37-4.7.47-6.58,2.17-.43.39-.64.72-.67,1.31-.21,5.17-.37,10.34-.74,15.49-.28,3.79-.95,7.53-2.4,11.1-.83,2.05-2.19,3.53-4.21,4.51-4.21,2.04-8.71,3.07-13.28,3.82-11.97,1.98-23.98,2.17-36.02.7-4.98-.61-9.91-1.47-14.66-3.12-1.14-.4-2.23-.93-3.33-1.4-2.03-.87-3.37-2.38-4.2-4.39-1.18-2.83-1.75-5.81-2.18-8.83-.86-6.03-1.06-12.11-1.02-18.19,0-.71-.24-1.12-.78-1.6-1.43-1.27-3.02-1.74-4.93-1.58-1.48.13-2.99.03-4.53.03Z"/><path class="cls-3" d="m558.9,368.78c-1.93.36-3.84.89-5.78,1.05-6.05.49-12.1,1.06-18.16,1.2-10.01.23-20.04.24-30.05.14-7.66-.07-15.32-.39-22.92-1.5-1.74-.26-3.46-.67-5.18-1.08-.55-.13-1.05-.45-1.76-.76.64-.65,1.11-1.2,1.65-1.67,3.46-3.04,7.55-4.95,11.86-6.43,7.36-2.52,15-3.47,22.74-3.86.24-.01.47-.03.7-.05.06,0,.11-.04.29-.12-.22-1.19-.68-2.28-1.44-3.27-.64-.84-1.38-1.64-1.83-2.57-.49-1-.72-2.13-1.02-3.22-.17-.64.19-.99.82-1.08.9-.12,1.81-.33,2.71-.32,3.71.04,7.41.09,11.12.25,1.34.06,1.42.3,1.29,1.61-.18,1.76-1.13,3.15-2.15,4.54-.7.96-1.26,2.02-1.85,3.06-.15.27-.17.6-.29,1.03.45.03.82.07,1.18.08,8.1.28,16.09,1.22,23.8,3.86,4.32,1.48,8.4,3.41,11.9,6.38.86.73,1.62,1.58,2.43,2.37-.03.12-.05.23-.08.35Z"/><path class="cls-3" d="m395.77,67.23c-21.3,0-38.62,17.19-38.62,38.32s17.32,38.32,38.62,38.32,38.62-17.19,38.62-38.32-17.33-38.32-38.62-38.32h0Zm25.26,47.04h-16.47v16.33h-17.58v-16.33h-16.47v-17.45h16.47v-16.34s17.58,0,17.58,0v16.34h16.47v17.45Z"/><polygon class="cls-3" points="87.2 336.34 74.76 420.62 109.51 410.93 101.24 472.05 147.09 384.97 102.47 398.31 119.21 336.34 87.2 336.34"/><polygon class="cls-3" points="200.62 64.14 199.12 79.07 217.59 79.07 218.81 64.14 200.62 64.14 200.62 64.14"/><polygon class="cls-3" points="224.52 64.14 223.3 79.07 242.45 79.07 241.23 64.14 224.52 64.14"/><polygon class="cls-3" points="246.93 64.14 248.12 79.07 266.6 79.07 265.09 64.14 246.93 64.14"/><polygon class="cls-3" points="248.58 84.32 249.65 97.58 268.43 97.58 267.08 84.32 248.58 84.32"/><polygon class="cls-3" points="223.04 84.32 221.98 97.58 243.77 97.58 242.7 84.32 223.04 84.32 223.04 84.32"/><polygon class="cls-3" points="198.63 84.32 197.29 97.58 216.1 97.58 217.16 84.32 198.63 84.32"/><polygon class="cls-3" points="196.8 102.83 195.3 117.76 214.44 117.76 215.66 102.83 196.8 102.83"/><polygon class="cls-3" points="221.69 102.83 220.5 117.76 245.24 117.76 244.05 102.83 221.69 102.83 221.69 102.83"/><polygon class="cls-3" points="250.08 102.83 251.3 117.76 270.42 117.76 268.92 102.83 250.08 102.83"/><rect class="cls-3" x="231.02" y="121.61" width="3.68" height="9.7"/></svg>