<?xml version="1.0" encoding="UTF-8"?><svg id="Layer_1" xmlns="http://www.w3.org/2000/svg" viewBox="0 0 1280 300"><defs><style>.cls-1{fill-rule:evenodd;}.cls-1,.cls-2{fill:#fff;stroke-width:0px;}</style></defs><path class="cls-2" d="m266.67,145.46h18.57v12.3h-18.57v25.21h23.37v12.3h-36.9v-86.1h36.9v12.3h-23.37v23.98Z"/><path class="cls-2" d="m309.99,132.92v62.36h-12.18v-86.1h16.97l13.9,51.54v-51.54h12.05v86.1h-13.9l-16.85-62.36Z"/><path class="cls-2" d="m363.15,145.46h18.57v12.3h-18.57v25.21h23.37v12.3h-36.9v-86.1h36.9v12.3h-23.37v23.98Z"/><path class="cls-2" d="m422.63,195.28c-.74-2.21-1.23-3.57-1.23-10.58v-13.53c0-8-2.71-10.95-8.85-10.95h-4.67v35.05h-13.53v-86.1h20.42c14.02,0,20.05,6.52,20.05,19.8v6.77c0,8.86-2.83,14.64-8.86,17.47,6.77,2.83,8.98,9.35,8.98,18.33v13.28c0,4.18.12,7.26,1.48,10.46h-13.78Zm-14.76-73.8v26.44h5.29c5.04,0,8.12-2.21,8.12-9.1v-8.49c0-6.15-2.09-8.85-6.89-8.85h-6.52Z"/><path class="cls-2" d="m463.87,147.31h18.94v27.31c0,13.78-6.89,21.65-20.17,21.65s-20.17-7.87-20.17-21.65v-44.77c0-13.78,6.89-21.65,20.17-21.65s20.17,7.87,20.17,21.65v8.36h-12.79v-9.23c0-6.15-2.71-8.49-7.01-8.49s-7.01,2.34-7.01,8.49v46.49c0,6.15,2.71,8.36,7.01,8.36s7.01-2.21,7.01-8.36v-15.87h-6.15v-12.3Z"/><path class="cls-2" d="m503.75,166.74l-17.1-57.56h14.14l10.33,39.24,10.33-39.24h12.92l-17.1,57.56v28.54h-13.53v-28.54Z"/><path class="cls-2" d="m605.1,195.28h-13.65l-2.34-15.62h-16.61l-2.34,15.62h-12.42l13.78-86.1h19.8l13.78,86.1Zm-30.87-27.31h13.04l-6.52-43.54-6.52,43.54Z"/><path class="cls-2" d="m650.53,163.17v11.44c0,13.78-6.89,21.65-20.17,21.65s-20.17-7.87-20.17-21.65v-44.77c0-13.78,6.89-21.65,20.17-21.65s20.17,7.87,20.17,21.65v8.36h-12.79v-9.23c0-6.15-2.7-8.49-7.01-8.49s-7.01,2.34-7.01,8.49v46.49c0,6.15,2.71,8.36,7.01,8.36s7.01-2.21,7.01-8.36v-12.3h12.79Z"/><path class="cls-2" d="m698.13,163.17v11.44c0,13.78-6.89,21.65-20.17,21.65s-20.17-7.87-20.17-21.65v-44.77c0-13.78,6.89-21.65,20.17-21.65s20.17,7.87,20.17,21.65v8.36h-12.79v-9.23c0-6.15-2.7-8.49-7.01-8.49s-7.01,2.34-7.01,8.49v46.49c0,6.15,2.71,8.36,7.01,8.36s7.01-2.21,7.01-8.36v-12.3h12.79Z"/><path class="cls-2" d="m719.43,145.46h18.57v12.3h-18.57v25.21h23.37v12.3h-36.9v-86.1h36.9v12.3h-23.37v23.98Z"/><path class="cls-2" d="m769.69,108.19c13.16,0,19.93,7.87,19.93,21.65v2.71h-12.79v-3.57c0-6.15-2.46-8.49-6.77-8.49s-6.77,2.34-6.77,8.49c0,17.71,26.45,21.03,26.45,45.63,0,13.78-6.89,21.65-20.17,21.65s-20.17-7.87-20.17-21.65v-5.29h12.79v6.15c0,6.15,2.71,8.36,7.01,8.36s7.01-2.21,7.01-8.36c0-17.71-26.44-21.03-26.44-45.63,0-13.78,6.77-21.65,19.93-21.65Z"/><path class="cls-2" d="m816.6,108.19c13.16,0,19.93,7.87,19.93,21.65v2.71h-12.79v-3.57c0-6.15-2.46-8.49-6.77-8.49s-6.77,2.34-6.77,8.49c0,17.71,26.45,21.03,26.45,45.63,0,13.78-6.89,21.65-20.17,21.65s-20.17-7.87-20.17-21.65v-5.29h12.79v6.15c0,6.15,2.71,8.36,7.01,8.36s7.01-2.21,7.01-8.36c0-17.71-26.44-21.03-26.44-45.63,0-13.78,6.77-21.65,19.93-21.65Z"/><path class="cls-2" d="m879.45,145.46h18.57v12.3h-18.57v25.21h23.37v12.3h-36.9v-86.1h36.9v12.3h-23.37v23.98Z"/><path class="cls-2" d="m957.43,109.18l-14.14,41.82,15.13,44.28h-14.27l-11.07-34.07-11.19,34.07h-12.67l15.13-44.28-14.15-41.82h14.02l10.21,31.73,10.46-31.73h12.55Z"/><path class="cls-2" d="m1005.6,130.46v11.19c0,13.78-6.64,21.28-20.17,21.28h-6.39v32.35h-13.53v-86.1h19.93c13.53,0,20.17,7.5,20.17,21.28Zm-26.57-8.98v29.15h6.39c4.31,0,6.64-1.97,6.64-8.12v-12.92c0-6.15-2.34-8.12-6.64-8.12h-6.39Z"/><path class="cls-2" d="m1012.75,109.18h13.53v73.8h22.26v12.3h-35.79v-86.1Z"/><path class="cls-2" d="m1054.44,129.84c0-13.78,7.26-21.65,20.54-21.65s20.54,7.87,20.54,21.65v44.77c0,13.78-7.26,21.65-20.54,21.65s-20.54-7.87-20.54-21.65v-44.77Zm13.53,45.63c0,6.15,2.71,8.49,7.01,8.49s7.01-2.34,7.01-8.49v-46.49c0-6.15-2.7-8.49-7.01-8.49s-7.01,2.34-7.01,8.49v46.49Z"/><path class="cls-2" d="m1132.07,195.28c-.74-2.21-1.23-3.57-1.23-10.58v-13.53c0-8-2.7-10.95-8.85-10.95h-4.67v35.05h-13.53v-86.1h20.42c14.02,0,20.05,6.52,20.05,19.8v6.77c0,8.86-2.83,14.64-8.85,17.47,6.76,2.83,8.98,9.35,8.98,18.33v13.28c0,4.18.12,7.26,1.47,10.46h-13.78Zm-14.76-73.8v26.44h5.29c5.04,0,8.12-2.21,8.12-9.1v-8.49c0-6.15-2.09-8.85-6.89-8.85h-6.52Z"/><path class="cls-2" d="m1166.74,145.46h18.57v12.3h-18.57v25.21h23.37v12.3h-36.9v-86.1h36.9v12.3h-23.37v23.98Z"/><path class="cls-2" d="m1226.22,195.28c-.74-2.21-1.23-3.57-1.23-10.58v-13.53c0-8-2.7-10.95-8.85-10.95h-4.67v35.05h-13.53v-86.1h20.42c14.02,0,20.05,6.52,20.05,19.8v6.77c0,8.86-2.83,14.64-8.85,17.47,6.76,2.83,8.98,9.35,8.98,18.33v13.28c0,4.18.12,7.26,1.47,10.46h-13.78Zm-14.76-73.8v26.44h5.29c5.04,0,8.12-2.21,8.12-9.1v-8.49c0-6.15-2.09-8.85-6.89-8.85h-6.52Z"/><path class="cls-1" d="m70.69,219.37c6.4,6.35,12.8,12.7,19.21,19.05,2.28,2.26,5.99,2.26,8.27,0,6.4-6.35,12.81-12.7,19.21-19.05,2.27-2.26,2.27-5.95,0-8.21-6.4-6.35-12.81-12.7-19.21-19.05-2.27-2.26-5.99-2.26-8.27,0-6.4,6.35-12.81,12.71-19.21,19.05-2.27,2.26-2.27,5.95,0,8.21Z"/><path class="cls-1" d="m103.98,186.34c6.4,6.35,12.81,12.7,19.21,19.05,2.27,2.26,5.99,2.26,8.27,0,6.41-6.35,12.81-12.7,19.21-19.05,2.27-2.26,2.27-5.95,0-8.21-6.4-6.35-12.81-12.7-19.21-19.06-2.27-2.26-5.99-2.26-8.27,0-6.4,6.35-12.81,12.7-19.21,19.06-2.27,2.26-2.27,5.95,0,8.21Z"/><path class="cls-1" d="m103.98,252.39c6.4,6.35,12.8,12.7,19.21,19.06,2.27,2.26,5.99,2.26,8.27,0,6.4-6.35,12.8-12.7,19.21-19.06,2.27-2.26,2.27-5.94,0-8.2-6.41-6.35-12.81-12.7-19.21-19.05-2.27-2.26-5.99-2.26-8.27,0-6.41,6.35-12.81,12.7-19.21,19.05-2.27,2.26-2.27,5.94,0,8.2Z"/><path class="cls-1" d="m137.27,219.36c6.4,6.36,12.81,12.71,19.21,19.06,2.27,2.26,5.99,2.26,8.27,0,6.4-6.35,12.81-12.7,19.21-19.06,2.27-2.25,2.27-5.94,0-8.2-6.4-6.35-12.8-12.7-19.21-19.05-2.27-2.26-5.99-2.26-8.27,0-6.4,6.35-12.81,12.7-19.21,19.05-2.27,2.26-2.27,5.95,0,8.2Z"/><path class="cls-1" d="m62.29,88.82c-14.48,15.72-22.17,35.39-23.09,55.31h38.35c.82-10.18,4.77-20.17,11.85-28.41l-27.12-26.9Zm11.37,34.79v.39c-.08,5.49-4.58,9.93-10.12,9.93s-10.01-4.41-10.12-9.93v-.55c.25-8.33,10.12-16.54,10.12-16.54,0,0,9.87,8.22,10.12,16.54v.17Z"/><path class="cls-1" d="m62.57,130.44c.3.06.63.08.97.08,1.79,0,3.47-.69,4.74-1.93,1.27-1.24,1.99-2.89,2.01-4.69v-.36c-.06-1.6-.61-3.42-1.68-5.38.06.5.08.99.08,1.52,0,4.58-2.45,8.6-6.12,10.75Z"/><path class="cls-1" d="m193.35,88.83l-27.12,26.9c7.08,8.24,11.03,18.23,11.86,28.41h38.35c-.91-19.92-8.61-39.59-23.09-55.31Zm-3.32,45.49h-3.28c-2.49,0-4.52-2.16-4.52-4.82,0-.24.18-.44.41-.44h3.28c2.49,0,4.52,2.16,4.52,4.82,0,.24-.18.44-.41.44Zm0-6.82h-3.28c-2.49,0-4.52-2.16-4.52-4.82,0-.24.18-.44.41-.44h3.28c2.49,0,4.52,2.16,4.52,4.82,0,.24-.18.44-.41.44Zm0-6.82h-3.28c-2.49,0-4.52-2.16-4.52-4.82,0-.24.18-.44.41-.44h3.28c2.49,0,4.52,2.16,4.52,4.82,0,.24-.18.44-.41.44Zm0-6.82h-3.28c-2.49,0-4.52-2.16-4.52-4.82,0-.24.18-.44.41-.44h3.28c2.49,0,4.52,2.16,4.52,4.82,0,.24-.18.44-.41.44Zm2.69,25.13c0,.27-.21.49-.46.49s-.46-.22-.46-.49v-25.33c0-.27.21-.49.46-.49s.46.22.46.49v25.33Zm5.88-30.39h3.28c.23,0,.41.2.41.44,0,2.66-2.02,4.82-4.52,4.82h-3.28c-.23,0-.41-.2-.41-.44,0-2.66,2.02-4.82,4.52-4.82Zm3.69,7.26c0,2.66-2.02,4.82-4.52,4.82h-3.28c-.23,0-.41-.2-.41-.44,0-2.66,2.02-4.82,4.52-4.82h3.28c.23,0,.41.2.41.44Zm-4.52,18.46h-3.28c-.23,0-.41-.2-.41-.44,0-2.66,2.02-4.82,4.52-4.82h3.28c.23,0,.41.2.41.44,0,2.66-2.02,4.82-4.52,4.82Zm0-6.82h-3.28c-.23,0-.41-.2-.41-.44,0-2.66,2.02-4.82,4.52-4.82h3.28c.23,0,.41.2.41.44,0,2.66-2.02,4.82-4.52,4.82Z"/><path class="cls-1" d="m178.09,152.16c-.82,10.18-4.77,20.16-11.86,28.41l27.12,26.9c14.48-15.72,22.17-35.39,23.09-55.31h-38.35Zm1.47,15.67c1.09-.96,2.38-1.56,3.74-2.03,2.32-.79,4.73-1.09,7.17-1.22.07,0,.15,0,.22-.02.02,0,.03-.01.09-.04-.07-.37-.22-.72-.45-1.03-.2-.26-.43-.52-.58-.81-.15-.32-.23-.67-.32-1.02-.05-.2.06-.31.26-.34.28-.04.57-.11.86-.1,1.17.01,2.34.03,3.5.08.42.02.45.1.41.51-.06.55-.36.99-.68,1.43-.22.3-.4.64-.58.96-.05.08-.06.19-.09.32.14.01.26.02.37.03,2.55.09,5.07.39,7.5,1.22,1.36.46,2.65,1.07,3.75,2.01.27.23.51.5.77.75,0,.04-.02.07-.02.11-.61.11-1.21.28-1.82.33-1.91.16-3.81.34-5.72.38-3.16.07-6.31.08-9.47.05-2.41-.02-4.83-.12-7.22-.47-.55-.08-1.09-.21-1.63-.34-.17-.04-.33-.14-.55-.24.2-.21.35-.38.52-.53Zm28.87,4.2c-.32,0-.64.04-.95,0-.81-.12-1.48.15-2.07.68-.14.12-.2.23-.21.41-.07,1.63-.12,3.26-.23,4.88-.09,1.19-.3,2.37-.76,3.5-.26.65-.69,1.11-1.33,1.42-1.33.64-2.74.97-4.18,1.2-3.77.62-7.56.69-11.35.22-1.57-.19-3.12-.46-4.62-.98-.36-.12-.7-.29-1.05-.44-.64-.27-1.06-.75-1.32-1.38-.37-.89-.55-1.83-.69-2.78-.27-1.9-.33-3.82-.32-5.73,0-.23-.08-.35-.25-.5-.45-.4-.95-.55-1.55-.5-.47.04-.94,0-1.43,0v-.92c.07,0,.14-.03.21-.03.26,0,.52,0,.78,0,.77,0,1.56-.12,2.24.55.02-.47.04-.83.06-1.19.52.11,1.01.26,1.51.31,1.7.17,3.4.36,5.1.44,4.5.21,9.01.2,13.51-.02,1.69-.08,3.38-.31,5.07-.47.17-.02.34-.07.55-.11.02.36.03.7.05,1.08.25-.13.49-.24.7-.37.28-.16.57-.23.9-.22.6.02,1.21,0,1.83,0v.93c-.07,0-.14.02-.21.02Z"/><polygon class="cls-1" points="156.83 77.82 151.29 77.82 151.29 82.96 146.1 82.96 146.1 88.46 151.29 88.46 151.29 93.61 156.83 93.61 156.83 88.46 162.02 88.46 162.02 82.96 156.83 82.96 156.83 77.82"/><path class="cls-1" d="m131.87,60.23v38.05c10.26.81,20.33,4.73,28.63,11.75l27.12-26.9c-15.84-14.36-35.68-22-55.76-22.91Zm22.19,37.56c-6.71,0-12.17-5.42-12.17-12.07s5.46-12.07,12.17-12.07,12.17,5.42,12.17,12.07-5.46,12.07-12.17,12.07Z"/><path class="cls-1" d="m77.55,152.16h-38.35c.91,19.92,8.61,39.6,23.09,55.31l27.12-26.91c-7.08-8.24-11.03-18.22-11.86-28.41Zm-16.3,49.04l2.61-19.26-10.95,3.05,3.92-26.56h10.09l-5.27,19.53,14.06-4.2-14.45,27.44Z"/><path class="cls-1" d="m68.02,83.13l27.12,26.9c8.31-7.02,18.37-10.94,28.64-11.75v-38.05c-20.08.91-39.91,8.54-55.76,22.91Zm32.08-10.47h5.27l.38,4.7h-6.03l.38-4.7Zm-.47,6.36h6.2l.33,4.18h-6.87l.33-4.18Zm-.42,5.83h7.05l.38,4.7h-7.8l.38-4.7Zm4.1,5.92v3.06h-1.16v-3.06h1.16Zm-6.38-1.21h-6.03l.47-4.7h5.94l-.38,4.7Zm.52-6.36h-5.93l.42-4.18h5.84l-.33,4.18Zm.47-5.83h-5.82l.47-4.7h5.73l-.38,4.7Zm8.87,20h-8.13v-2.32h8.13v2.32Zm.37-24.7h5.72l.47,4.7h-5.82l-.38-4.7Zm.52,6.36h5.83l.42,4.18h-5.92l-.33-4.18Zm.86,10.54l-.38-4.7h5.94l.47,4.7h-6.03Z"/></svg>